<?xml version="1.0" encoding="UTF-8"?>
<svg id="Layer_1" data-name="Layer 1" xmlns="http://www.w3.org/2000/svg" viewBox="0 0 388.91 388.91">
  <defs>
    <style>
      .cls-1 {
        fill-rule: evenodd;
      }
    </style>
  </defs>
  <path d="m194.45,301.95c-59.27,0-107.5-48.22-107.5-107.5s48.22-107.5,107.5-107.5,107.5,48.22,107.5,107.5-48.22,107.5-107.5,107.5Zm0-208.81c-55.86,0-101.31,45.45-101.31,101.31s45.45,101.31,101.31,101.31,101.31-45.45,101.31-101.31-45.45-101.31-101.31-101.31Z"/>
  <path d="m194.45,288.59c-51.91,0-94.14-42.23-94.14-94.14s42.23-94.14,94.14-94.14,94.14,42.23,94.14,94.14-42.23,94.14-94.14,94.14Zm0-184.74c-49.96,0-90.61,40.65-90.61,90.6s40.65,90.61,90.61,90.61,90.6-40.65,90.6-90.61-40.65-90.6-90.6-90.6Z"/>
  <path d="m203.07,388.91h-17.23c-1.22,0-2.21-.99-2.21-2.21s.99-2.21,2.21-2.21h6.41v-184.71L61.64,330.39l4.53,4.53c.86.86.86,2.26,0,3.12-.86.86-2.26.86-3.12,0l-12.19-12.19c-.86-.86-.86-2.26,0-3.12.86-.86,2.26-.86,3.12,0l4.53,4.53,130.61-130.61H48.39c-1.08,8.01-7.96,14.2-16.26,14.2s-15.18-6.19-16.26-14.2H4.42v6.41c0,1.22-.99,2.21-2.21,2.21s-2.21-.99-2.21-2.21v-17.23c0-1.22.99-2.21,2.21-2.21s2.21.99,2.21,2.21v6.41h11.45c1.08-8.01,7.96-14.2,16.26-14.2s15.18,6.19,16.26,14.2h140.73L58.52,61.64l-4.53,4.53c-.86.86-2.26.86-3.12,0-.86-.86-.86-2.26,0-3.12l12.19-12.19c.86-.86,2.26-.86,3.12,0,.86.86.86,2.26,0,3.12l-4.53,4.53,130.61,130.61V57.57h-10.65c-1.22,0-2.21-.99-2.21-2.21s.99-2.21,2.21-2.21h10.65v-1.23c-7.24-.71-12.91-6.83-12.91-14.25,0-5.32,2.92-9.97,7.24-12.44-3.4-2.45-5.62-6.45-5.62-10.96,0-1.22.99-2.21,2.21-2.21s2.21.99,2.21,2.21c0,4.25,2.93,7.83,6.88,8.82V4.42h-6.41c-1.22,0-2.21-.99-2.21-2.21s.99-2.21,2.21-2.21h17.23c1.22,0,2.21.99,2.21,2.21s-.99,2.21-2.21,2.21h-6.41v18.66c3.95-.99,6.88-4.57,6.88-8.82,0-1.22.99-2.21,2.21-2.21s2.21.99,2.21,2.21c0,4.84-2.56,9.1-6.4,11.48,3.85,2.57,6.4,6.95,6.4,11.92,0,6.86-4.85,12.6-11.3,13.99v1.49h10.65c1.22,0,2.21.99,2.21,2.21s-.99,2.21-2.21,2.21h-10.65v131.56L327.27,58.52l-4.53-4.53c-.86-.86-.86-2.26,0-3.12.86-.86,2.26-.86,3.12,0l12.19,12.19c.86.86.86,2.26,0,3.12-.86.86-2.26.86-3.12,0l-4.53-4.53-130.61,130.61h138.79v-6.41c0-1.22.99-2.21,2.21-2.21s2.21.99,2.21,2.21v6.41h8.21v-9.12c0-.77.4-1.48,1.05-1.88.65-.4,1.46-.44,2.15-.1l22.2,11.1h7.89v-6.41c0-1.22.99-2.21,2.21-2.21s2.21.99,2.21,2.21v17.23c0,1.22-.99,2.21-2.21,2.21s-2.21-.99-2.21-2.21v-6.41h-7.89l-22.2,11.1c-.68.34-1.5.31-2.15-.1-.65-.4-1.05-1.11-1.05-1.88v-9.12h-8.21v6.41c0,1.22-.99,2.21-2.21,2.21s-2.21-.99-2.21-2.21v-6.41h-138.79l130.61,130.61,4.53-4.53c.86-.86,2.26-.86,3.12,0,.86.86.86,2.26,0,3.12l-12.19,12.19c-.86.86-2.26.86-3.12,0s-.86-2.26,0-3.12l4.53-4.53-130.61-130.61v184.71h6.41c1.22,0,2.21.99,2.21,2.21s-.99,2.21-2.21,2.21ZM20.34,196.66c1.04,5.56,5.93,9.78,11.79,9.78s10.75-4.22,11.79-9.78h-23.57Zm335.28,0v5.55l11.1-5.55h-11.1Zm0-4.42h11.1l-11.1-5.55v5.55Zm-335.28,0h23.57c-1.04-5.56-5.93-9.78-11.79-9.78s-10.75,4.22-11.79,9.78ZM192.25,27.87c-4.8.68-8.5,4.82-8.5,9.8s3.7,9.12,8.5,9.8v-19.6Zm4.42.37v18.85c3.99-1.28,6.88-5.02,6.88-9.43s-2.89-8.15-6.88-9.43Z"/>
  <path class="cls-1" d="m202.3,336.87c-.05-.11-.09-.22-.13-.32-.41-1.06-.88-2.17-1.53-3.06-1.01-1.38-2.38-2.33-4.41-2.41-2.45-.1-4.01.68-5.17,1.79-1,.96-1.66,2.26-2.3,3.6-.42.88-.74,1.86-1.64,2.37-.22-.18-.66-.54-.92-.82-.93-1-1.87-2.19-2.82-3.03-.93-.83-1.92-1.36-2.88-1.54-2.4-.43-6.74,1.12-8.74,3.15-1.06,1.07-1.55,2.28-1.53,3.38.02.98.37,1.97,1.33,2.85,1,.93,2.57.87,3.5-.14.7-.76.84-1.85.42-2.73.29-.25.7-.57,1.04-.76,1.04-.56,2.28-1.03,3.1-.88.18.03.31.22.48.37.38.34.76.76,1.14,1.19,1.09,1.24,2.21,2.53,3.31,3.21,1.33.83,2.69,1.03,4.07.48,2.09-.83,3.27-2.39,4.17-4.16.53-1.05.87-2.23,1.66-2.99.34-.33.83-.45,1.56-.43.37.01.56.29.73.56.18.29.33.61.47.93.52,1.2.93,2.45,1.49,3.29.99,1.51,2.31,2.25,4.15,1.93.76-.13,1.94-.88,3.02-2.35.68-.92,1.47-2.16,2.35-3.29.65-.84,1.32-1.65,2.09-2.01.31-.14.58.04.92.39.4.4.8.96,1.21,1.69l1.43,2.57c.51,1.27,1.96,1.88,3.23,1.36,1.27-.51,1.88-1.96,1.36-3.23-.15-.38-.33-.75-.53-1.12-.37-.69-.8-1.36-1.18-2.03-1.61-2.82-3.32-4.04-4.8-4.45-1.27-.36-2.51-.21-3.7.33-1.93.89-3.76,3.15-5.21,5.23-.24.34-.51.71-.76,1.06h0Z"/>
  <path class="cls-1" d="m202.3,355.61c-.05-.11-.09-.22-.13-.32-.41-1.06-.88-2.17-1.53-3.06-1.01-1.38-2.38-2.33-4.41-2.41-2.45-.1-4.01.68-5.17,1.79-1,.96-1.66,2.26-2.3,3.6-.42.88-.74,1.86-1.64,2.37-.22-.18-.66-.54-.92-.82-.93-1-1.87-2.19-2.82-3.03-.93-.83-1.92-1.36-2.88-1.54-2.4-.43-6.74,1.12-8.74,3.15-1.06,1.07-1.55,2.28-1.53,3.38.02.98.37,1.97,1.33,2.85,1,.93,2.57.87,3.5-.14.7-.76.84-1.85.42-2.73.29-.25.7-.57,1.04-.76,1.04-.56,2.28-1.03,3.1-.88.18.03.31.21.48.37.38.34.76.76,1.14,1.19,1.09,1.24,2.21,2.53,3.31,3.21,1.33.83,2.69,1.03,4.07.48,2.09-.83,3.27-2.39,4.17-4.16.53-1.05.87-2.23,1.66-2.99.34-.33.83-.45,1.56-.43.37.01.56.29.73.56.18.29.33.61.47.93.52,1.2.93,2.45,1.49,3.29.99,1.51,2.31,2.25,4.15,1.93.76-.13,1.94-.89,3.02-2.35.68-.92,1.47-2.15,2.35-3.29.65-.84,1.32-1.65,2.09-2.01.31-.14.58.04.92.39.4.4.8.96,1.21,1.69l1.43,2.57c.51,1.27,1.96,1.88,3.23,1.36,1.27-.51,1.88-1.96,1.36-3.23-.15-.38-.33-.75-.53-1.12-.37-.69-.8-1.36-1.18-2.03-1.61-2.82-3.32-4.04-4.8-4.45-1.27-.36-2.51-.21-3.7.33-1.93.89-3.76,3.15-5.21,5.23-.24.34-.51.72-.76,1.06h0Z"/>
</svg>